<svg xmlns="http://www.w3.org/2000/svg" viewBox="4.3392816000000005 17.012591999999998 63.36 39.6" id="emoji" style="max-height: 500px" width="63.36" height="39.6">
  <g id="color">
    <path d="M66.5,24.8516S64.5938,39.1484,55.0625,39.1484H16.9375C7.4062,39.1484,5.5,24.8516,5.5,24.8516S9.3125,27.7109,36,27.7109,66.5,24.8516,66.5,24.8516Z" stroke-width="2" stroke-linejoin="round" stroke-linecap="round" stroke="#61b2e4" fill="#61b2e4"/>
    <polyline points="40.484 18.304 44.815 20.804 42.083 21.537 29.583 43.187 30.315 45.919 24.815 55.446 19.618 52.446 25.118 42.919 27.85 42.187 40.35 20.537 40.484 18.304" fill="#a57939"/>
  </g>
  <g id="line">
    <g>
      <line stroke-width="2" stroke-linejoin="round" stroke-linecap="round" stroke="#000" fill="none" y2="18.3045" y1="20.5365" x2="40.4845" x1="40.3505"/>
      <polyline points="41.083 23.269 29.583 43.187 30.315 45.919 24.815 55.446 19.618 52.446 25.118 42.919 26.484 42.553" stroke-width="2" stroke-linejoin="round" stroke-linecap="round" stroke="#000" fill="none"/>
      <line stroke-width="2" stroke-linejoin="round" stroke-linecap="round" stroke="#000" fill="none" y2="20.3045" y1="18.3045" x2="43.9486" x1="40.4845"/>
      <path d="M35.45,39.1484H55.0625c9.5313,0,11.4375-14.2968,11.4375-14.2968s-3.229,2.409-24.4141,2.8034" stroke-width="2" stroke-linejoin="round" stroke-linecap="round" stroke="#000" fill="none"/>
      <path d="M33.8578,27.7037C9.1127,27.5551,5.5,24.8516,5.5,24.8516S7.4062,39.1484,16.9375,39.1484H27.25" stroke-width="2" stroke-linejoin="round" stroke-linecap="round" stroke="#000" fill="none"/>
    </g>
  </g>
</svg>